<mxfile host="app.diagrams.net" agent="Mozilla/5.0 (Windows NT 10.0; Win64; x64) AppleWebKit/537.36 (KHTML, like Gecko) Chrome/132.0.0.0 Safari/537.36" version="26.0.14">
  <diagram name="Page-1" id="_spbNpdxGvu0bYpgRzP7">
    <mxGraphModel dx="1105" dy="635" grid="1" gridSize="10" guides="1" tooltips="1" connect="1" arrows="1" fold="1" page="1" pageScale="1" pageWidth="850" pageHeight="1100" math="0" shadow="0">
      <root>
        <mxCell id="0" />
        <mxCell id="1" parent="0" />
        <mxCell id="H_fdNqEZYhqOomwV6L9n-1" value="" style="rounded=0;whiteSpace=wrap;html=1;" parent="1" vertex="1">
          <mxGeometry x="105" y="120" width="160" height="160" as="geometry" />
        </mxCell>
        <mxCell id="H_fdNqEZYhqOomwV6L9n-2" value="" style="endArrow=none;html=1;rounded=0;entryX=0;entryY=0;entryDx=0;entryDy=0;" parent="1" edge="1" target="H_fdNqEZYhqOomwV6L9n-1">
          <mxGeometry width="50" height="50" relative="1" as="geometry">
            <mxPoint x="65" y="80" as="sourcePoint" />
            <mxPoint x="95" y="50" as="targetPoint" />
          </mxGeometry>
        </mxCell>
        <mxCell id="ha9z89Nl5Ze3QV_GlEnP-1" value="a0 a1" style="text;html=1;align=center;verticalAlign=middle;whiteSpace=wrap;rounded=0;rotation=90;fontSize=13;" vertex="1" parent="1">
          <mxGeometry x="35" y="90" width="50" height="30" as="geometry" />
        </mxCell>
        <mxCell id="ha9z89Nl5Ze3QV_GlEnP-3" value="b0 b1" style="text;html=1;align=center;verticalAlign=middle;whiteSpace=wrap;rounded=0;" vertex="1" parent="1">
          <mxGeometry x="65" y="60" width="40" height="20" as="geometry" />
        </mxCell>
        <mxCell id="ha9z89Nl5Ze3QV_GlEnP-6" value="00" style="text;html=1;align=center;verticalAlign=middle;whiteSpace=wrap;rounded=0;" vertex="1" parent="1">
          <mxGeometry x="95" y="90" width="60" height="30" as="geometry" />
        </mxCell>
        <mxCell id="ha9z89Nl5Ze3QV_GlEnP-7" value="01" style="text;html=1;align=center;verticalAlign=middle;whiteSpace=wrap;rounded=0;" vertex="1" parent="1">
          <mxGeometry x="135" y="90" width="60" height="30" as="geometry" />
        </mxCell>
        <mxCell id="ha9z89Nl5Ze3QV_GlEnP-8" value="11" style="text;html=1;align=center;verticalAlign=middle;whiteSpace=wrap;rounded=0;" vertex="1" parent="1">
          <mxGeometry x="175" y="90" width="60" height="30" as="geometry" />
        </mxCell>
        <mxCell id="ha9z89Nl5Ze3QV_GlEnP-9" value="10" style="text;html=1;align=center;verticalAlign=middle;whiteSpace=wrap;rounded=0;" vertex="1" parent="1">
          <mxGeometry x="215" y="90" width="60" height="30" as="geometry" />
        </mxCell>
        <mxCell id="ha9z89Nl5Ze3QV_GlEnP-10" value="00" style="text;html=1;align=center;verticalAlign=middle;whiteSpace=wrap;rounded=0;" vertex="1" parent="1">
          <mxGeometry x="55" y="120" width="60" height="40" as="geometry" />
        </mxCell>
        <mxCell id="ha9z89Nl5Ze3QV_GlEnP-11" value="01" style="text;html=1;align=center;verticalAlign=middle;whiteSpace=wrap;rounded=0;" vertex="1" parent="1">
          <mxGeometry x="55" y="160" width="60" height="40" as="geometry" />
        </mxCell>
        <mxCell id="ha9z89Nl5Ze3QV_GlEnP-12" value="11" style="text;html=1;align=center;verticalAlign=middle;whiteSpace=wrap;rounded=0;" vertex="1" parent="1">
          <mxGeometry x="55" y="200" width="60" height="40" as="geometry" />
        </mxCell>
        <mxCell id="ha9z89Nl5Ze3QV_GlEnP-13" value="10" style="text;html=1;align=center;verticalAlign=middle;whiteSpace=wrap;rounded=0;" vertex="1" parent="1">
          <mxGeometry x="55" y="240" width="60" height="40" as="geometry" />
        </mxCell>
        <mxCell id="ha9z89Nl5Ze3QV_GlEnP-14" value="" style="endArrow=none;html=1;rounded=0;exitX=0.75;exitY=1;exitDx=0;exitDy=0;entryX=0.75;entryY=0;entryDx=0;entryDy=0;" edge="1" parent="1" source="H_fdNqEZYhqOomwV6L9n-1" target="H_fdNqEZYhqOomwV6L9n-1">
          <mxGeometry width="50" height="50" relative="1" as="geometry">
            <mxPoint x="225" y="260" as="sourcePoint" />
            <mxPoint x="275" y="210" as="targetPoint" />
          </mxGeometry>
        </mxCell>
        <mxCell id="ha9z89Nl5Ze3QV_GlEnP-15" value="" style="endArrow=none;html=1;rounded=0;exitX=0.75;exitY=1;exitDx=0;exitDy=0;entryX=0.75;entryY=0;entryDx=0;entryDy=0;" edge="1" parent="1">
          <mxGeometry width="50" height="50" relative="1" as="geometry">
            <mxPoint x="184.5" y="280" as="sourcePoint" />
            <mxPoint x="184.5" y="120" as="targetPoint" />
          </mxGeometry>
        </mxCell>
        <mxCell id="ha9z89Nl5Ze3QV_GlEnP-16" value="" style="endArrow=none;html=1;rounded=0;exitX=0.75;exitY=1;exitDx=0;exitDy=0;entryX=0.75;entryY=0;entryDx=0;entryDy=0;" edge="1" parent="1">
          <mxGeometry width="50" height="50" relative="1" as="geometry">
            <mxPoint x="145" y="280" as="sourcePoint" />
            <mxPoint x="145" y="120" as="targetPoint" />
          </mxGeometry>
        </mxCell>
        <mxCell id="ha9z89Nl5Ze3QV_GlEnP-17" value="" style="endArrow=none;html=1;rounded=0;entryX=1;entryY=0.25;entryDx=0;entryDy=0;" edge="1" parent="1" target="H_fdNqEZYhqOomwV6L9n-1">
          <mxGeometry width="50" height="50" relative="1" as="geometry">
            <mxPoint x="105" y="160" as="sourcePoint" />
            <mxPoint x="255" y="150" as="targetPoint" />
          </mxGeometry>
        </mxCell>
        <mxCell id="ha9z89Nl5Ze3QV_GlEnP-18" value="" style="endArrow=none;html=1;rounded=0;entryX=1;entryY=0.25;entryDx=0;entryDy=0;" edge="1" parent="1">
          <mxGeometry width="50" height="50" relative="1" as="geometry">
            <mxPoint x="105" y="199.5" as="sourcePoint" />
            <mxPoint x="265" y="199.5" as="targetPoint" />
          </mxGeometry>
        </mxCell>
        <mxCell id="ha9z89Nl5Ze3QV_GlEnP-19" value="" style="endArrow=none;html=1;rounded=0;entryX=1;entryY=0.25;entryDx=0;entryDy=0;" edge="1" parent="1">
          <mxGeometry width="50" height="50" relative="1" as="geometry">
            <mxPoint x="105" y="239" as="sourcePoint" />
            <mxPoint x="265" y="239" as="targetPoint" />
          </mxGeometry>
        </mxCell>
        <mxCell id="ha9z89Nl5Ze3QV_GlEnP-20" value="&lt;font style=&quot;font-size: 20px; color: rgb(255, 0, 0);&quot;&gt;&lt;b style=&quot;&quot;&gt;RED&lt;/b&gt;&lt;/font&gt;" style="text;html=1;align=center;verticalAlign=middle;whiteSpace=wrap;rounded=0;" vertex="1" parent="1">
          <mxGeometry x="145" y="40" width="80" height="40" as="geometry" />
        </mxCell>
        <mxCell id="ha9z89Nl5Ze3QV_GlEnP-21" value="1" style="text;html=1;align=center;verticalAlign=middle;whiteSpace=wrap;rounded=0;" vertex="1" parent="1">
          <mxGeometry x="105" y="120" width="40" height="40" as="geometry" />
        </mxCell>
        <mxCell id="ha9z89Nl5Ze3QV_GlEnP-22" value="1" style="text;html=1;align=center;verticalAlign=middle;whiteSpace=wrap;rounded=0;" vertex="1" parent="1">
          <mxGeometry x="145" y="160" width="40" height="40" as="geometry" />
        </mxCell>
        <mxCell id="ha9z89Nl5Ze3QV_GlEnP-23" value="0" style="text;html=1;align=center;verticalAlign=middle;whiteSpace=wrap;rounded=0;" vertex="1" parent="1">
          <mxGeometry x="185" y="160" width="40" height="40" as="geometry" />
        </mxCell>
        <mxCell id="ha9z89Nl5Ze3QV_GlEnP-24" value="0" style="text;html=1;align=center;verticalAlign=middle;whiteSpace=wrap;rounded=0;" vertex="1" parent="1">
          <mxGeometry x="225" y="160" width="40" height="40" as="geometry" />
        </mxCell>
        <mxCell id="ha9z89Nl5Ze3QV_GlEnP-25" value="1" style="text;html=1;align=center;verticalAlign=middle;whiteSpace=wrap;rounded=0;" vertex="1" parent="1">
          <mxGeometry x="105" y="200" width="40" height="40" as="geometry" />
        </mxCell>
        <mxCell id="ha9z89Nl5Ze3QV_GlEnP-26" value="1" style="text;html=1;align=center;verticalAlign=middle;whiteSpace=wrap;rounded=0;" vertex="1" parent="1">
          <mxGeometry x="145" y="200" width="40" height="40" as="geometry" />
        </mxCell>
        <mxCell id="ha9z89Nl5Ze3QV_GlEnP-27" value="1" style="text;html=1;align=center;verticalAlign=middle;whiteSpace=wrap;rounded=0;" vertex="1" parent="1">
          <mxGeometry x="185" y="200" width="40" height="40" as="geometry" />
        </mxCell>
        <mxCell id="ha9z89Nl5Ze3QV_GlEnP-28" value="1" style="text;html=1;align=center;verticalAlign=middle;whiteSpace=wrap;rounded=0;" vertex="1" parent="1">
          <mxGeometry x="225" y="200" width="40" height="40" as="geometry" />
        </mxCell>
        <mxCell id="ha9z89Nl5Ze3QV_GlEnP-29" value="1" style="text;html=1;align=center;verticalAlign=middle;whiteSpace=wrap;rounded=0;" vertex="1" parent="1">
          <mxGeometry x="225" y="240" width="40" height="40" as="geometry" />
        </mxCell>
        <mxCell id="ha9z89Nl5Ze3QV_GlEnP-30" value="0" style="text;html=1;align=center;verticalAlign=middle;whiteSpace=wrap;rounded=0;" vertex="1" parent="1">
          <mxGeometry x="185" y="240" width="40" height="40" as="geometry" />
        </mxCell>
        <mxCell id="ha9z89Nl5Ze3QV_GlEnP-31" value="1" style="text;html=1;align=center;verticalAlign=middle;whiteSpace=wrap;rounded=0;" vertex="1" parent="1">
          <mxGeometry x="145" y="240" width="40" height="40" as="geometry" />
        </mxCell>
        <mxCell id="ha9z89Nl5Ze3QV_GlEnP-32" value="1" style="text;html=1;align=center;verticalAlign=middle;whiteSpace=wrap;rounded=0;" vertex="1" parent="1">
          <mxGeometry x="105" y="240" width="40" height="40" as="geometry" />
        </mxCell>
        <mxCell id="ha9z89Nl5Ze3QV_GlEnP-35" value="0" style="text;html=1;align=center;verticalAlign=middle;whiteSpace=wrap;rounded=0;" vertex="1" parent="1">
          <mxGeometry x="145" y="120" width="40" height="40" as="geometry" />
        </mxCell>
        <mxCell id="ha9z89Nl5Ze3QV_GlEnP-36" value="0" style="text;html=1;align=center;verticalAlign=middle;whiteSpace=wrap;rounded=0;" vertex="1" parent="1">
          <mxGeometry x="185" y="120" width="40" height="40" as="geometry" />
        </mxCell>
        <mxCell id="ha9z89Nl5Ze3QV_GlEnP-37" value="0" style="text;html=1;align=center;verticalAlign=middle;whiteSpace=wrap;rounded=0;" vertex="1" parent="1">
          <mxGeometry x="225" y="120" width="40" height="40" as="geometry" />
        </mxCell>
        <mxCell id="ha9z89Nl5Ze3QV_GlEnP-38" value="1" style="text;html=1;align=center;verticalAlign=middle;whiteSpace=wrap;rounded=0;" vertex="1" parent="1">
          <mxGeometry x="105" y="160" width="40" height="40" as="geometry" />
        </mxCell>
        <mxCell id="ha9z89Nl5Ze3QV_GlEnP-46" value="" style="shape=partialRectangle;whiteSpace=wrap;html=1;bottom=1;right=1;left=1;top=0;fillColor=none;routingCenterX=-0.5;strokeColor=#FF0000;rotation=90;" vertex="1" parent="1">
          <mxGeometry x="210" y="225" width="70" height="30" as="geometry" />
        </mxCell>
        <mxCell id="ha9z89Nl5Ze3QV_GlEnP-48" value="" style="shape=partialRectangle;whiteSpace=wrap;html=1;bottom=1;right=1;left=1;top=0;fillColor=none;routingCenterX=-0.5;strokeColor=#FF0000;rotation=-90;" vertex="1" parent="1">
          <mxGeometry x="90" y="225" width="70" height="30" as="geometry" />
        </mxCell>
        <mxCell id="ha9z89Nl5Ze3QV_GlEnP-53" value="" style="shape=partialRectangle;whiteSpace=wrap;html=1;bottom=1;right=1;left=1;top=0;fillColor=none;routingCenterX=-0.5;strokeColor=#3333FF;" vertex="1" parent="1">
          <mxGeometry x="115" y="210" width="60" height="60" as="geometry" />
        </mxCell>
        <mxCell id="ha9z89Nl5Ze3QV_GlEnP-54" value="" style="endArrow=none;html=1;rounded=0;strokeColor=#3333FF;exitX=0;exitY=0;exitDx=0;exitDy=0;entryX=1;entryY=0;entryDx=0;entryDy=0;" edge="1" parent="1" source="ha9z89Nl5Ze3QV_GlEnP-53" target="ha9z89Nl5Ze3QV_GlEnP-53">
          <mxGeometry width="50" height="50" relative="1" as="geometry">
            <mxPoint x="120" y="260" as="sourcePoint" />
            <mxPoint x="170" y="210" as="targetPoint" />
          </mxGeometry>
        </mxCell>
        <mxCell id="ha9z89Nl5Ze3QV_GlEnP-55" value="" style="shape=partialRectangle;whiteSpace=wrap;html=1;bottom=1;right=1;left=1;top=0;fillColor=none;routingCenterX=-0.5;strokeColor=#00FF00;" vertex="1" parent="1">
          <mxGeometry x="115" y="170" width="60" height="60" as="geometry" />
        </mxCell>
        <mxCell id="ha9z89Nl5Ze3QV_GlEnP-57" value="" style="endArrow=none;html=1;rounded=0;strokeColor=#00FF00;entryX=1;entryY=0;entryDx=0;entryDy=0;exitX=0;exitY=0;exitDx=0;exitDy=0;" edge="1" parent="1" source="ha9z89Nl5Ze3QV_GlEnP-55" target="ha9z89Nl5Ze3QV_GlEnP-55">
          <mxGeometry width="50" height="50" relative="1" as="geometry">
            <mxPoint x="85" y="260" as="sourcePoint" />
            <mxPoint x="135" y="210" as="targetPoint" />
          </mxGeometry>
        </mxCell>
        <mxCell id="ha9z89Nl5Ze3QV_GlEnP-60" value="" style="shape=partialRectangle;whiteSpace=wrap;html=1;bottom=1;right=1;left=1;top=0;fillColor=none;routingCenterX=-0.5;strokeColor=#33001A;direction=south;" vertex="1" parent="1">
          <mxGeometry x="115" y="130" width="20" height="140" as="geometry" />
        </mxCell>
        <mxCell id="ha9z89Nl5Ze3QV_GlEnP-61" value="" style="endArrow=none;html=1;rounded=0;strokeColor=#33001A;" edge="1" parent="1">
          <mxGeometry width="50" height="50" relative="1" as="geometry">
            <mxPoint x="135" y="130" as="sourcePoint" />
            <mxPoint x="135" y="270" as="targetPoint" />
          </mxGeometry>
        </mxCell>
        <mxCell id="ha9z89Nl5Ze3QV_GlEnP-62" value="" style="shape=partialRectangle;whiteSpace=wrap;html=1;bottom=1;right=1;left=1;top=0;fillColor=none;routingCenterX=-0.5;strokeColor=#990099;" vertex="1" parent="1">
          <mxGeometry x="115" y="210" width="140" height="20" as="geometry" />
        </mxCell>
        <mxCell id="ha9z89Nl5Ze3QV_GlEnP-63" value="" style="endArrow=none;html=1;rounded=0;strokeColor=#990099;entryX=1;entryY=0;entryDx=0;entryDy=0;exitX=0;exitY=0;exitDx=0;exitDy=0;" edge="1" parent="1" source="ha9z89Nl5Ze3QV_GlEnP-62" target="ha9z89Nl5Ze3QV_GlEnP-62">
          <mxGeometry width="50" height="50" relative="1" as="geometry">
            <mxPoint x="5" y="150" as="sourcePoint" />
            <mxPoint x="55" y="100" as="targetPoint" />
          </mxGeometry>
        </mxCell>
        <mxCell id="ha9z89Nl5Ze3QV_GlEnP-64" value="" style="rounded=0;whiteSpace=wrap;html=1;" vertex="1" parent="1">
          <mxGeometry x="590" y="120" width="160" height="160" as="geometry" />
        </mxCell>
        <mxCell id="ha9z89Nl5Ze3QV_GlEnP-65" value="" style="endArrow=none;html=1;rounded=0;entryX=0;entryY=0;entryDx=0;entryDy=0;" edge="1" parent="1" target="ha9z89Nl5Ze3QV_GlEnP-64">
          <mxGeometry width="50" height="50" relative="1" as="geometry">
            <mxPoint x="550" y="80" as="sourcePoint" />
            <mxPoint x="580" y="50" as="targetPoint" />
          </mxGeometry>
        </mxCell>
        <mxCell id="ha9z89Nl5Ze3QV_GlEnP-66" value="a0 a1" style="text;html=1;align=center;verticalAlign=middle;whiteSpace=wrap;rounded=0;rotation=90;fontSize=13;" vertex="1" parent="1">
          <mxGeometry x="520" y="90" width="50" height="30" as="geometry" />
        </mxCell>
        <mxCell id="ha9z89Nl5Ze3QV_GlEnP-67" value="b0 b1" style="text;html=1;align=center;verticalAlign=middle;whiteSpace=wrap;rounded=0;" vertex="1" parent="1">
          <mxGeometry x="550" y="60" width="40" height="20" as="geometry" />
        </mxCell>
        <mxCell id="ha9z89Nl5Ze3QV_GlEnP-68" value="00" style="text;html=1;align=center;verticalAlign=middle;whiteSpace=wrap;rounded=0;" vertex="1" parent="1">
          <mxGeometry x="580" y="90" width="60" height="30" as="geometry" />
        </mxCell>
        <mxCell id="ha9z89Nl5Ze3QV_GlEnP-69" value="01" style="text;html=1;align=center;verticalAlign=middle;whiteSpace=wrap;rounded=0;" vertex="1" parent="1">
          <mxGeometry x="620" y="90" width="60" height="30" as="geometry" />
        </mxCell>
        <mxCell id="ha9z89Nl5Ze3QV_GlEnP-70" value="11" style="text;html=1;align=center;verticalAlign=middle;whiteSpace=wrap;rounded=0;" vertex="1" parent="1">
          <mxGeometry x="660" y="90" width="60" height="30" as="geometry" />
        </mxCell>
        <mxCell id="ha9z89Nl5Ze3QV_GlEnP-71" value="10" style="text;html=1;align=center;verticalAlign=middle;whiteSpace=wrap;rounded=0;" vertex="1" parent="1">
          <mxGeometry x="700" y="90" width="60" height="30" as="geometry" />
        </mxCell>
        <mxCell id="ha9z89Nl5Ze3QV_GlEnP-72" value="00" style="text;html=1;align=center;verticalAlign=middle;whiteSpace=wrap;rounded=0;" vertex="1" parent="1">
          <mxGeometry x="540" y="120" width="60" height="40" as="geometry" />
        </mxCell>
        <mxCell id="ha9z89Nl5Ze3QV_GlEnP-73" value="01" style="text;html=1;align=center;verticalAlign=middle;whiteSpace=wrap;rounded=0;" vertex="1" parent="1">
          <mxGeometry x="540" y="160" width="60" height="40" as="geometry" />
        </mxCell>
        <mxCell id="ha9z89Nl5Ze3QV_GlEnP-74" value="11" style="text;html=1;align=center;verticalAlign=middle;whiteSpace=wrap;rounded=0;" vertex="1" parent="1">
          <mxGeometry x="540" y="200" width="60" height="40" as="geometry" />
        </mxCell>
        <mxCell id="ha9z89Nl5Ze3QV_GlEnP-75" value="10" style="text;html=1;align=center;verticalAlign=middle;whiteSpace=wrap;rounded=0;" vertex="1" parent="1">
          <mxGeometry x="540" y="240" width="60" height="40" as="geometry" />
        </mxCell>
        <mxCell id="ha9z89Nl5Ze3QV_GlEnP-76" value="" style="endArrow=none;html=1;rounded=0;exitX=0.75;exitY=1;exitDx=0;exitDy=0;entryX=0.75;entryY=0;entryDx=0;entryDy=0;" edge="1" parent="1" source="ha9z89Nl5Ze3QV_GlEnP-64" target="ha9z89Nl5Ze3QV_GlEnP-64">
          <mxGeometry width="50" height="50" relative="1" as="geometry">
            <mxPoint x="710" y="260" as="sourcePoint" />
            <mxPoint x="760" y="210" as="targetPoint" />
          </mxGeometry>
        </mxCell>
        <mxCell id="ha9z89Nl5Ze3QV_GlEnP-77" value="" style="endArrow=none;html=1;rounded=0;exitX=0.75;exitY=1;exitDx=0;exitDy=0;entryX=0.75;entryY=0;entryDx=0;entryDy=0;" edge="1" parent="1">
          <mxGeometry width="50" height="50" relative="1" as="geometry">
            <mxPoint x="669.5" y="280" as="sourcePoint" />
            <mxPoint x="669.5" y="120" as="targetPoint" />
          </mxGeometry>
        </mxCell>
        <mxCell id="ha9z89Nl5Ze3QV_GlEnP-78" value="" style="endArrow=none;html=1;rounded=0;exitX=0.75;exitY=1;exitDx=0;exitDy=0;entryX=0.75;entryY=0;entryDx=0;entryDy=0;" edge="1" parent="1">
          <mxGeometry width="50" height="50" relative="1" as="geometry">
            <mxPoint x="630" y="280" as="sourcePoint" />
            <mxPoint x="630" y="120" as="targetPoint" />
          </mxGeometry>
        </mxCell>
        <mxCell id="ha9z89Nl5Ze3QV_GlEnP-79" value="" style="endArrow=none;html=1;rounded=0;entryX=1;entryY=0.25;entryDx=0;entryDy=0;" edge="1" parent="1" target="ha9z89Nl5Ze3QV_GlEnP-64">
          <mxGeometry width="50" height="50" relative="1" as="geometry">
            <mxPoint x="590" y="160" as="sourcePoint" />
            <mxPoint x="740" y="150" as="targetPoint" />
          </mxGeometry>
        </mxCell>
        <mxCell id="ha9z89Nl5Ze3QV_GlEnP-80" value="" style="endArrow=none;html=1;rounded=0;entryX=1;entryY=0.25;entryDx=0;entryDy=0;" edge="1" parent="1">
          <mxGeometry width="50" height="50" relative="1" as="geometry">
            <mxPoint x="590" y="199.5" as="sourcePoint" />
            <mxPoint x="750" y="199.5" as="targetPoint" />
          </mxGeometry>
        </mxCell>
        <mxCell id="ha9z89Nl5Ze3QV_GlEnP-81" value="" style="endArrow=none;html=1;rounded=0;entryX=1;entryY=0.25;entryDx=0;entryDy=0;" edge="1" parent="1">
          <mxGeometry width="50" height="50" relative="1" as="geometry">
            <mxPoint x="590" y="239" as="sourcePoint" />
            <mxPoint x="750" y="239" as="targetPoint" />
          </mxGeometry>
        </mxCell>
        <mxCell id="ha9z89Nl5Ze3QV_GlEnP-82" value="&lt;font style=&quot;font-size: 20px; color: rgb(51, 51, 255);&quot;&gt;&lt;b&gt;BLUE&lt;/b&gt;&lt;/font&gt;" style="text;html=1;align=center;verticalAlign=middle;whiteSpace=wrap;rounded=0;" vertex="1" parent="1">
          <mxGeometry x="630" y="40" width="80" height="40" as="geometry" />
        </mxCell>
        <mxCell id="ha9z89Nl5Ze3QV_GlEnP-83" value="0" style="text;html=1;align=center;verticalAlign=middle;whiteSpace=wrap;rounded=0;" vertex="1" parent="1">
          <mxGeometry x="590" y="120" width="40" height="40" as="geometry" />
        </mxCell>
        <mxCell id="ha9z89Nl5Ze3QV_GlEnP-84" value="0" style="text;html=1;align=center;verticalAlign=middle;whiteSpace=wrap;rounded=0;" vertex="1" parent="1">
          <mxGeometry x="630" y="160" width="40" height="40" as="geometry" />
        </mxCell>
        <mxCell id="ha9z89Nl5Ze3QV_GlEnP-85" value="1" style="text;html=1;align=center;verticalAlign=middle;whiteSpace=wrap;rounded=0;" vertex="1" parent="1">
          <mxGeometry x="670" y="160" width="40" height="40" as="geometry" />
        </mxCell>
        <mxCell id="ha9z89Nl5Ze3QV_GlEnP-86" value="1" style="text;html=1;align=center;verticalAlign=middle;whiteSpace=wrap;rounded=0;" vertex="1" parent="1">
          <mxGeometry x="710" y="160" width="40" height="40" as="geometry" />
        </mxCell>
        <mxCell id="ha9z89Nl5Ze3QV_GlEnP-87" value="1" style="text;html=1;align=center;verticalAlign=middle;whiteSpace=wrap;rounded=0;" vertex="1" parent="1">
          <mxGeometry x="590" y="200" width="40" height="40" as="geometry" />
        </mxCell>
        <mxCell id="ha9z89Nl5Ze3QV_GlEnP-88" value="1" style="text;html=1;align=center;verticalAlign=middle;whiteSpace=wrap;rounded=0;" vertex="1" parent="1">
          <mxGeometry x="630" y="200" width="40" height="40" as="geometry" />
        </mxCell>
        <mxCell id="ha9z89Nl5Ze3QV_GlEnP-89" value="0" style="text;html=1;align=center;verticalAlign=middle;whiteSpace=wrap;rounded=0;" vertex="1" parent="1">
          <mxGeometry x="670" y="200" width="40" height="40" as="geometry" />
        </mxCell>
        <mxCell id="ha9z89Nl5Ze3QV_GlEnP-90" value="1" style="text;html=1;align=center;verticalAlign=middle;whiteSpace=wrap;rounded=0;" vertex="1" parent="1">
          <mxGeometry x="710" y="200" width="40" height="40" as="geometry" />
        </mxCell>
        <mxCell id="ha9z89Nl5Ze3QV_GlEnP-91" value="0" style="text;html=1;align=center;verticalAlign=middle;whiteSpace=wrap;rounded=0;" vertex="1" parent="1">
          <mxGeometry x="710" y="240" width="40" height="40" as="geometry" />
        </mxCell>
        <mxCell id="ha9z89Nl5Ze3QV_GlEnP-92" value="1" style="text;html=1;align=center;verticalAlign=middle;whiteSpace=wrap;rounded=0;" vertex="1" parent="1">
          <mxGeometry x="670" y="240" width="40" height="40" as="geometry" />
        </mxCell>
        <mxCell id="ha9z89Nl5Ze3QV_GlEnP-93" value="1" style="text;html=1;align=center;verticalAlign=middle;whiteSpace=wrap;rounded=0;" vertex="1" parent="1">
          <mxGeometry x="630" y="240" width="40" height="40" as="geometry" />
        </mxCell>
        <mxCell id="ha9z89Nl5Ze3QV_GlEnP-94" value="1" style="text;html=1;align=center;verticalAlign=middle;whiteSpace=wrap;rounded=0;" vertex="1" parent="1">
          <mxGeometry x="590" y="240" width="40" height="40" as="geometry" />
        </mxCell>
        <mxCell id="ha9z89Nl5Ze3QV_GlEnP-95" value="1" style="text;html=1;align=center;verticalAlign=middle;whiteSpace=wrap;rounded=0;" vertex="1" parent="1">
          <mxGeometry x="630" y="120" width="40" height="40" as="geometry" />
        </mxCell>
        <mxCell id="ha9z89Nl5Ze3QV_GlEnP-96" value="1" style="text;html=1;align=center;verticalAlign=middle;whiteSpace=wrap;rounded=0;" vertex="1" parent="1">
          <mxGeometry x="670" y="120" width="40" height="40" as="geometry" />
        </mxCell>
        <mxCell id="ha9z89Nl5Ze3QV_GlEnP-97" value="1" style="text;html=1;align=center;verticalAlign=middle;whiteSpace=wrap;rounded=0;" vertex="1" parent="1">
          <mxGeometry x="710" y="120" width="40" height="40" as="geometry" />
        </mxCell>
        <mxCell id="ha9z89Nl5Ze3QV_GlEnP-98" value="1" style="text;html=1;align=center;verticalAlign=middle;whiteSpace=wrap;rounded=0;" vertex="1" parent="1">
          <mxGeometry x="590" y="160" width="40" height="40" as="geometry" />
        </mxCell>
        <mxCell id="ha9z89Nl5Ze3QV_GlEnP-180" value="" style="rounded=0;whiteSpace=wrap;html=1;" vertex="1" parent="1">
          <mxGeometry x="350" y="400" width="160" height="160" as="geometry" />
        </mxCell>
        <mxCell id="ha9z89Nl5Ze3QV_GlEnP-181" value="" style="endArrow=none;html=1;rounded=0;entryX=0;entryY=0;entryDx=0;entryDy=0;" edge="1" parent="1" target="ha9z89Nl5Ze3QV_GlEnP-180">
          <mxGeometry width="50" height="50" relative="1" as="geometry">
            <mxPoint x="310" y="360" as="sourcePoint" />
            <mxPoint x="340" y="330" as="targetPoint" />
          </mxGeometry>
        </mxCell>
        <mxCell id="ha9z89Nl5Ze3QV_GlEnP-182" value="a0 a1" style="text;html=1;align=center;verticalAlign=middle;whiteSpace=wrap;rounded=0;rotation=90;fontSize=13;" vertex="1" parent="1">
          <mxGeometry x="280" y="370" width="50" height="30" as="geometry" />
        </mxCell>
        <mxCell id="ha9z89Nl5Ze3QV_GlEnP-183" value="b0 b1" style="text;html=1;align=center;verticalAlign=middle;whiteSpace=wrap;rounded=0;" vertex="1" parent="1">
          <mxGeometry x="310" y="340" width="40" height="20" as="geometry" />
        </mxCell>
        <mxCell id="ha9z89Nl5Ze3QV_GlEnP-184" value="00" style="text;html=1;align=center;verticalAlign=middle;whiteSpace=wrap;rounded=0;" vertex="1" parent="1">
          <mxGeometry x="340" y="370" width="60" height="30" as="geometry" />
        </mxCell>
        <mxCell id="ha9z89Nl5Ze3QV_GlEnP-185" value="01" style="text;html=1;align=center;verticalAlign=middle;whiteSpace=wrap;rounded=0;" vertex="1" parent="1">
          <mxGeometry x="380" y="370" width="60" height="30" as="geometry" />
        </mxCell>
        <mxCell id="ha9z89Nl5Ze3QV_GlEnP-186" value="11" style="text;html=1;align=center;verticalAlign=middle;whiteSpace=wrap;rounded=0;" vertex="1" parent="1">
          <mxGeometry x="420" y="370" width="60" height="30" as="geometry" />
        </mxCell>
        <mxCell id="ha9z89Nl5Ze3QV_GlEnP-187" value="10" style="text;html=1;align=center;verticalAlign=middle;whiteSpace=wrap;rounded=0;" vertex="1" parent="1">
          <mxGeometry x="460" y="370" width="60" height="30" as="geometry" />
        </mxCell>
        <mxCell id="ha9z89Nl5Ze3QV_GlEnP-188" value="00" style="text;html=1;align=center;verticalAlign=middle;whiteSpace=wrap;rounded=0;" vertex="1" parent="1">
          <mxGeometry x="300" y="400" width="60" height="40" as="geometry" />
        </mxCell>
        <mxCell id="ha9z89Nl5Ze3QV_GlEnP-189" value="01" style="text;html=1;align=center;verticalAlign=middle;whiteSpace=wrap;rounded=0;" vertex="1" parent="1">
          <mxGeometry x="300" y="440" width="60" height="40" as="geometry" />
        </mxCell>
        <mxCell id="ha9z89Nl5Ze3QV_GlEnP-190" value="11" style="text;html=1;align=center;verticalAlign=middle;whiteSpace=wrap;rounded=0;" vertex="1" parent="1">
          <mxGeometry x="300" y="480" width="60" height="40" as="geometry" />
        </mxCell>
        <mxCell id="ha9z89Nl5Ze3QV_GlEnP-191" value="10" style="text;html=1;align=center;verticalAlign=middle;whiteSpace=wrap;rounded=0;" vertex="1" parent="1">
          <mxGeometry x="300" y="520" width="60" height="40" as="geometry" />
        </mxCell>
        <mxCell id="ha9z89Nl5Ze3QV_GlEnP-192" value="" style="endArrow=none;html=1;rounded=0;exitX=0.75;exitY=1;exitDx=0;exitDy=0;entryX=0.75;entryY=0;entryDx=0;entryDy=0;" edge="1" parent="1" source="ha9z89Nl5Ze3QV_GlEnP-180" target="ha9z89Nl5Ze3QV_GlEnP-180">
          <mxGeometry width="50" height="50" relative="1" as="geometry">
            <mxPoint x="470" y="540" as="sourcePoint" />
            <mxPoint x="520" y="490" as="targetPoint" />
          </mxGeometry>
        </mxCell>
        <mxCell id="ha9z89Nl5Ze3QV_GlEnP-193" value="" style="endArrow=none;html=1;rounded=0;exitX=0.75;exitY=1;exitDx=0;exitDy=0;entryX=0.75;entryY=0;entryDx=0;entryDy=0;" edge="1" parent="1">
          <mxGeometry width="50" height="50" relative="1" as="geometry">
            <mxPoint x="429.5" y="560" as="sourcePoint" />
            <mxPoint x="429.5" y="400" as="targetPoint" />
          </mxGeometry>
        </mxCell>
        <mxCell id="ha9z89Nl5Ze3QV_GlEnP-194" value="" style="endArrow=none;html=1;rounded=0;exitX=0.75;exitY=1;exitDx=0;exitDy=0;entryX=0.75;entryY=0;entryDx=0;entryDy=0;" edge="1" parent="1">
          <mxGeometry width="50" height="50" relative="1" as="geometry">
            <mxPoint x="390" y="560" as="sourcePoint" />
            <mxPoint x="390" y="400" as="targetPoint" />
          </mxGeometry>
        </mxCell>
        <mxCell id="ha9z89Nl5Ze3QV_GlEnP-195" value="" style="endArrow=none;html=1;rounded=0;entryX=1;entryY=0.25;entryDx=0;entryDy=0;" edge="1" parent="1" target="ha9z89Nl5Ze3QV_GlEnP-180">
          <mxGeometry width="50" height="50" relative="1" as="geometry">
            <mxPoint x="350" y="440" as="sourcePoint" />
            <mxPoint x="500" y="430" as="targetPoint" />
          </mxGeometry>
        </mxCell>
        <mxCell id="ha9z89Nl5Ze3QV_GlEnP-196" value="" style="endArrow=none;html=1;rounded=0;entryX=1;entryY=0.25;entryDx=0;entryDy=0;" edge="1" parent="1">
          <mxGeometry width="50" height="50" relative="1" as="geometry">
            <mxPoint x="350" y="479.5" as="sourcePoint" />
            <mxPoint x="510" y="479.5" as="targetPoint" />
          </mxGeometry>
        </mxCell>
        <mxCell id="ha9z89Nl5Ze3QV_GlEnP-197" value="" style="endArrow=none;html=1;rounded=0;entryX=1;entryY=0.25;entryDx=0;entryDy=0;" edge="1" parent="1">
          <mxGeometry width="50" height="50" relative="1" as="geometry">
            <mxPoint x="350" y="519" as="sourcePoint" />
            <mxPoint x="510" y="519" as="targetPoint" />
          </mxGeometry>
        </mxCell>
        <mxCell id="ha9z89Nl5Ze3QV_GlEnP-198" value="&lt;font style=&quot;font-size: 20px; color: rgb(0, 255, 0);&quot;&gt;&lt;b style=&quot;&quot;&gt;GREEN&lt;/b&gt;&lt;/font&gt;" style="text;html=1;align=center;verticalAlign=middle;whiteSpace=wrap;rounded=0;" vertex="1" parent="1">
          <mxGeometry x="390" y="320" width="80" height="40" as="geometry" />
        </mxCell>
        <mxCell id="ha9z89Nl5Ze3QV_GlEnP-199" value="1" style="text;html=1;align=center;verticalAlign=middle;whiteSpace=wrap;rounded=0;" vertex="1" parent="1">
          <mxGeometry x="350" y="400" width="40" height="40" as="geometry" />
        </mxCell>
        <mxCell id="ha9z89Nl5Ze3QV_GlEnP-200" value="1" style="text;html=1;align=center;verticalAlign=middle;whiteSpace=wrap;rounded=0;" vertex="1" parent="1">
          <mxGeometry x="390" y="440" width="40" height="40" as="geometry" />
        </mxCell>
        <mxCell id="ha9z89Nl5Ze3QV_GlEnP-201" value="1" style="text;html=1;align=center;verticalAlign=middle;whiteSpace=wrap;rounded=0;" vertex="1" parent="1">
          <mxGeometry x="430" y="440" width="40" height="40" as="geometry" />
        </mxCell>
        <mxCell id="ha9z89Nl5Ze3QV_GlEnP-202" value="1" style="text;html=1;align=center;verticalAlign=middle;whiteSpace=wrap;rounded=0;" vertex="1" parent="1">
          <mxGeometry x="470" y="440" width="40" height="40" as="geometry" />
        </mxCell>
        <mxCell id="ha9z89Nl5Ze3QV_GlEnP-203" value="0" style="text;html=1;align=center;verticalAlign=middle;whiteSpace=wrap;rounded=0;" vertex="1" parent="1">
          <mxGeometry x="350" y="480" width="40" height="40" as="geometry" />
        </mxCell>
        <mxCell id="ha9z89Nl5Ze3QV_GlEnP-204" value="0" style="text;html=1;align=center;verticalAlign=middle;whiteSpace=wrap;rounded=0;" vertex="1" parent="1">
          <mxGeometry x="390" y="480" width="40" height="40" as="geometry" />
        </mxCell>
        <mxCell id="ha9z89Nl5Ze3QV_GlEnP-205" value="1" style="text;html=1;align=center;verticalAlign=middle;whiteSpace=wrap;rounded=0;" vertex="1" parent="1">
          <mxGeometry x="430" y="480" width="40" height="40" as="geometry" />
        </mxCell>
        <mxCell id="ha9z89Nl5Ze3QV_GlEnP-206" value="0" style="text;html=1;align=center;verticalAlign=middle;whiteSpace=wrap;rounded=0;" vertex="1" parent="1">
          <mxGeometry x="470" y="480" width="40" height="40" as="geometry" />
        </mxCell>
        <mxCell id="ha9z89Nl5Ze3QV_GlEnP-207" value="1" style="text;html=1;align=center;verticalAlign=middle;whiteSpace=wrap;rounded=0;" vertex="1" parent="1">
          <mxGeometry x="470" y="520" width="40" height="40" as="geometry" />
        </mxCell>
        <mxCell id="ha9z89Nl5Ze3QV_GlEnP-208" value="1" style="text;html=1;align=center;verticalAlign=middle;whiteSpace=wrap;rounded=0;" vertex="1" parent="1">
          <mxGeometry x="430" y="520" width="40" height="40" as="geometry" />
        </mxCell>
        <mxCell id="ha9z89Nl5Ze3QV_GlEnP-209" value="0" style="text;html=1;align=center;verticalAlign=middle;whiteSpace=wrap;rounded=0;" vertex="1" parent="1">
          <mxGeometry x="390" y="520" width="40" height="40" as="geometry" />
        </mxCell>
        <mxCell id="ha9z89Nl5Ze3QV_GlEnP-210" value="0" style="text;html=1;align=center;verticalAlign=middle;whiteSpace=wrap;rounded=0;" vertex="1" parent="1">
          <mxGeometry x="350" y="520" width="40" height="40" as="geometry" />
        </mxCell>
        <mxCell id="ha9z89Nl5Ze3QV_GlEnP-211" value="1" style="text;html=1;align=center;verticalAlign=middle;whiteSpace=wrap;rounded=0;" vertex="1" parent="1">
          <mxGeometry x="390" y="400" width="40" height="40" as="geometry" />
        </mxCell>
        <mxCell id="ha9z89Nl5Ze3QV_GlEnP-212" value="1" style="text;html=1;align=center;verticalAlign=middle;whiteSpace=wrap;rounded=0;" vertex="1" parent="1">
          <mxGeometry x="430" y="400" width="40" height="40" as="geometry" />
        </mxCell>
        <mxCell id="ha9z89Nl5Ze3QV_GlEnP-213" value="1" style="text;html=1;align=center;verticalAlign=middle;whiteSpace=wrap;rounded=0;" vertex="1" parent="1">
          <mxGeometry x="470" y="400" width="40" height="40" as="geometry" />
        </mxCell>
        <mxCell id="ha9z89Nl5Ze3QV_GlEnP-214" value="0" style="text;html=1;align=center;verticalAlign=middle;whiteSpace=wrap;rounded=0;" vertex="1" parent="1">
          <mxGeometry x="350" y="440" width="40" height="40" as="geometry" />
        </mxCell>
        <mxCell id="ha9z89Nl5Ze3QV_GlEnP-215" value="" style="shape=partialRectangle;whiteSpace=wrap;html=1;bottom=1;right=1;left=1;top=0;fillColor=none;routingCenterX=-0.5;strokeColor=#3333FF;" vertex="1" parent="1">
          <mxGeometry x="600" y="210" width="60" height="60" as="geometry" />
        </mxCell>
        <mxCell id="ha9z89Nl5Ze3QV_GlEnP-216" value="" style="endArrow=none;html=1;rounded=0;fontColor=#3333FF;entryX=1;entryY=0;entryDx=0;entryDy=0;exitX=0;exitY=0;exitDx=0;exitDy=0;strokeColor=#3333FF;" edge="1" parent="1" source="ha9z89Nl5Ze3QV_GlEnP-215" target="ha9z89Nl5Ze3QV_GlEnP-215">
          <mxGeometry width="50" height="50" relative="1" as="geometry">
            <mxPoint x="610" y="250" as="sourcePoint" />
            <mxPoint x="660" y="200" as="targetPoint" />
          </mxGeometry>
        </mxCell>
        <mxCell id="ha9z89Nl5Ze3QV_GlEnP-217" value="" style="shape=partialRectangle;whiteSpace=wrap;html=1;bottom=1;right=1;left=1;top=0;fillColor=none;routingCenterX=-0.5;strokeColor=#00FF00;" vertex="1" parent="1">
          <mxGeometry x="680" y="130" width="60" height="60" as="geometry" />
        </mxCell>
        <mxCell id="ha9z89Nl5Ze3QV_GlEnP-218" value="" style="endArrow=none;html=1;rounded=0;strokeColor=#00FF00;exitX=0;exitY=0;exitDx=0;exitDy=0;" edge="1" parent="1" source="ha9z89Nl5Ze3QV_GlEnP-217">
          <mxGeometry width="50" height="50" relative="1" as="geometry">
            <mxPoint x="690" y="180" as="sourcePoint" />
            <mxPoint x="740" y="130" as="targetPoint" />
          </mxGeometry>
        </mxCell>
        <mxCell id="ha9z89Nl5Ze3QV_GlEnP-219" value="" style="shape=partialRectangle;whiteSpace=wrap;html=1;bottom=1;right=1;left=1;top=0;fillColor=none;routingCenterX=-0.5;strokeColor=#FF0000;rotation=90;direction=south;" vertex="1" parent="1">
          <mxGeometry x="655" y="225" width="30" height="70" as="geometry" />
        </mxCell>
        <mxCell id="ha9z89Nl5Ze3QV_GlEnP-220" value="" style="shape=partialRectangle;whiteSpace=wrap;html=1;bottom=1;right=1;left=1;top=0;fillColor=none;routingCenterX=-0.5;strokeColor=#FF0000;rotation=90;direction=north;" vertex="1" parent="1">
          <mxGeometry x="655" y="105" width="30" height="70" as="geometry" />
        </mxCell>
        <mxCell id="ha9z89Nl5Ze3QV_GlEnP-221" value="" style="shape=partialRectangle;whiteSpace=wrap;html=1;bottom=1;right=1;left=1;top=0;fillColor=none;routingCenterX=-0.5;strokeColor=#990099;rotation=90;" vertex="1" parent="1">
          <mxGeometry x="695" y="185" width="70" height="30" as="geometry" />
        </mxCell>
        <mxCell id="ha9z89Nl5Ze3QV_GlEnP-222" value="" style="shape=partialRectangle;whiteSpace=wrap;html=1;bottom=1;right=1;left=1;top=0;fillColor=none;routingCenterX=-0.5;strokeColor=#990099;rotation=90;direction=west;" vertex="1" parent="1">
          <mxGeometry x="575" y="185" width="70" height="30" as="geometry" />
        </mxCell>
        <mxCell id="ha9z89Nl5Ze3QV_GlEnP-223" value="" style="shape=partialRectangle;whiteSpace=wrap;html=1;bottom=1;right=1;left=1;top=0;fillColor=none;routingCenterX=-0.5;strokeColor=#FF0000;rotation=90;direction=south;" vertex="1" parent="1">
          <mxGeometry x="455" y="505" width="30" height="70" as="geometry" />
        </mxCell>
        <mxCell id="ha9z89Nl5Ze3QV_GlEnP-224" value="" style="shape=partialRectangle;whiteSpace=wrap;html=1;bottom=1;right=1;left=1;top=0;fillColor=none;routingCenterX=-0.5;strokeColor=#FF0000;rotation=90;direction=north;" vertex="1" parent="1">
          <mxGeometry x="455" y="385" width="30" height="70" as="geometry" />
        </mxCell>
        <mxCell id="ha9z89Nl5Ze3QV_GlEnP-225" value="" style="shape=partialRectangle;whiteSpace=wrap;html=1;bottom=1;right=1;left=1;top=0;fillColor=none;routingCenterX=-0.5;strokeColor=#3333FF;" vertex="1" parent="1">
          <mxGeometry x="400" y="410" width="60" height="60" as="geometry" />
        </mxCell>
        <mxCell id="ha9z89Nl5Ze3QV_GlEnP-226" value="" style="endArrow=none;html=1;rounded=0;fontColor=#3333FF;entryX=1;entryY=0;entryDx=0;entryDy=0;exitX=0;exitY=0;exitDx=0;exitDy=0;strokeColor=#3333FF;" edge="1" parent="1">
          <mxGeometry width="50" height="50" relative="1" as="geometry">
            <mxPoint x="400" y="410" as="sourcePoint" />
            <mxPoint x="460" y="410" as="targetPoint" />
          </mxGeometry>
        </mxCell>
        <mxCell id="ha9z89Nl5Ze3QV_GlEnP-227" value="" style="shape=partialRectangle;whiteSpace=wrap;html=1;bottom=1;right=1;left=1;top=0;fillColor=none;routingCenterX=-0.5;strokeColor=#33001A;direction=west;" vertex="1" parent="1">
          <mxGeometry x="360" y="410" width="140" height="20" as="geometry" />
        </mxCell>
        <mxCell id="ha9z89Nl5Ze3QV_GlEnP-228" value="" style="endArrow=none;html=1;rounded=0;strokeColor=#33001A;entryX=0;entryY=0;entryDx=0;entryDy=0;exitX=1;exitY=0;exitDx=0;exitDy=0;" edge="1" parent="1" source="ha9z89Nl5Ze3QV_GlEnP-227" target="ha9z89Nl5Ze3QV_GlEnP-227">
          <mxGeometry width="50" height="50" relative="1" as="geometry">
            <mxPoint x="619.31" y="310" as="sourcePoint" />
            <mxPoint x="619.31" y="450" as="targetPoint" />
          </mxGeometry>
        </mxCell>
        <mxCell id="ha9z89Nl5Ze3QV_GlEnP-229" value="" style="shape=partialRectangle;whiteSpace=wrap;html=1;bottom=1;right=1;left=1;top=0;fillColor=none;routingCenterX=-0.5;strokeColor=#00FF00;" vertex="1" parent="1">
          <mxGeometry x="440" y="410" width="60" height="60" as="geometry" />
        </mxCell>
        <mxCell id="ha9z89Nl5Ze3QV_GlEnP-230" value="" style="endArrow=none;html=1;rounded=0;strokeColor=#00FF00;exitX=0;exitY=0;exitDx=0;exitDy=0;" edge="1" parent="1">
          <mxGeometry width="50" height="50" relative="1" as="geometry">
            <mxPoint x="440" y="410" as="sourcePoint" />
            <mxPoint x="500" y="410" as="targetPoint" />
          </mxGeometry>
        </mxCell>
        <mxCell id="ha9z89Nl5Ze3QV_GlEnP-231" value="" style="shape=partialRectangle;whiteSpace=wrap;html=1;bottom=1;right=1;left=1;top=0;fillColor=none;routingCenterX=-0.5;strokeColor=#990099;direction=south;" vertex="1" parent="1">
          <mxGeometry x="440" y="410" width="20" height="140" as="geometry" />
        </mxCell>
        <mxCell id="ha9z89Nl5Ze3QV_GlEnP-232" value="" style="endArrow=none;html=1;rounded=0;strokeColor=#990099;entryX=0;entryY=0;entryDx=0;entryDy=0;exitX=1;exitY=0;exitDx=0;exitDy=0;" edge="1" parent="1" source="ha9z89Nl5Ze3QV_GlEnP-231" target="ha9z89Nl5Ze3QV_GlEnP-231">
          <mxGeometry width="50" height="50" relative="1" as="geometry">
            <mxPoint x="600" y="455" as="sourcePoint" />
            <mxPoint x="740" y="455" as="targetPoint" />
          </mxGeometry>
        </mxCell>
      </root>
    </mxGraphModel>
  </diagram>
</mxfile>
